# xmcd
#
# Track frame offsets: 
#        150
#        19827
#        44514
#        57900
#        74347
#        88776
#        109773
#        119347
#        133989
#        148553
#        166657
#        178948
#        191706
#        217391
#        230517
#        239695
#        255805
#        272551
#        279482
#        303465
#        322624
#        334860
#
# Disc length: 4599 seconds
#
# Revision: 0
# Processed by: cddbd v1.5.2PL0 Copyright (c) Steve Scherf et al.
# Submitted via: ExactAudioCopyFreeDBPlugin 1.0
#
DISCID=4e11f516
DTITLE=Ironing Board Sam - Playing the Blues Live at Legends, Chester 
DTITLE=,SC
DYEAR=1900
DGENRE=Blues
TTITLE0=Everyday I sing the blues
TTITLE1=Down home blues
TTITLE2=Go Johnny go
TTITLE3=Blueberry Hill
TTITLE4=That's what I say (tribute to Ray Charles)
TTITLE5=Rock me baby
TTITLE6=Come on boogie
TTITLE7=Used to be I could call you mine alone
TTITLE8=Sweet home Chicago
TTITLE9=Child support (Original)
TTITLE10=Sweet little angel
TTITLE11=3 o'clock in the morning
TTITLE12=Sweet 16
TTITLE13=That's alright
TTITLE14=Let's do the twist
TTITLE15=That was too much for me
TTITLE16=Georgia
TTITLE17=Ain't it peculiar
TTITLE18=Stormy Monday
TTITLE19=Bright lights
TTITLE20=I worked 5 long years with that woman
TTITLE21=Stormy Monday blues (Request)
EXTD=
EXTT0=
EXTT1=
EXTT2=
EXTT3=
EXTT4=
EXTT5=
EXTT6=
EXTT7=
EXTT8=
EXTT9=
EXTT10=
EXTT11=
EXTT12=
EXTT13=
EXTT14=
EXTT15=
EXTT16=
EXTT17=
EXTT18=
EXTT19=
EXTT20=
EXTT21=
PLAYORDER=
